<?xml version="1.0" encoding="utf-8"?>
<!-- Generator: Adobe Illustrator 21.0.2, SVG Export Plug-In . SVG Version: 6.00 Build 0)  -->
<svg version="1.1" id="Layer_1" xmlns="http://www.w3.org/2000/svg" xmlns:xlink="http://www.w3.org/1999/xlink" x="0px" y="0px"
	 viewBox="0 0 65 65" style="enable-background:new 0 0 65 65;" xml:space="preserve">
<style type="text/css">
	.st0{fill:#FFFFFF;}
</style>
<title>menu_icon</title>
<path class="st0" d="M5.2,65c-1.7,0-2.8-0.7-3.4-1.4c-0.9-0.8-1.4-2-1.5-3.3c0-1.3,0.5-2.6,1.4-3.6L26,32.5L1.9,8.3
	C1,7.5,0.4,6.3,0.4,5c0-1.3,0.5-2.6,1.4-3.5C2.7,0.5,3.9,0,5.2,0c1.3,0,2.5,0.5,3.4,1.4l24.2,24.2L56.4,2.3c0.9-0.9,2.1-1.5,3.4-1.5
	c1.3,0,2.5,0.5,3.4,1.4l0.1,0.1C65,4.2,65,7.1,63.3,9L39.8,32.5l23.5,23.4c0.9,0.8,1.4,2,1.5,3.3c0,1.3-0.5,2.6-1.4,3.6
	c-0.6,0.6-1.8,1.4-3.5,1.4c-1.7,0-2.8-0.8-3.5-1.4L32.9,39.4L8.7,63.6C8,64.2,6.9,65,5.2,65z"/>
</svg>
